<svg width="112" height="35" viewBox="0 0 112 35" fill="none" xmlns="http://www.w3.org/2000/svg">
<path d="M0.603516 17.6816C0.603516 14.6348 1.0625 12.0469 1.98047 9.91797C2.91797 7.76953 4.30469 6.02148 6.14062 4.67383C7.97656 3.30664 10.2617 2.31055 12.9961 1.68555C15.75 1.06055 18.9434 0.748047 22.5762 0.748047C25.1152 0.748047 27.5762 0.982422 29.959 1.45117C32.3418 1.90039 34.7637 2.63281 37.2246 3.64844C37.5371 3.78516 37.7617 3.96094 37.8984 4.17578C38.0352 4.37109 38.1035 4.56641 38.1035 4.76172C38.1035 4.99609 38.0156 5.20117 37.8398 5.37695C37.6641 5.55273 37.4395 5.64062 37.166 5.64062C37.0879 5.64062 36.9023 5.5918 36.6094 5.49414C34.3633 4.55664 32.0391 3.85352 29.6367 3.38477C27.2344 2.91602 24.8809 2.68164 22.5762 2.68164C19.0996 2.68164 16.1309 2.97461 13.6699 3.56055C11.209 4.12695 9.1875 5.02539 7.60547 6.25586C6.04297 7.4668 4.90039 9.01953 4.17773 10.9141C3.45508 12.7891 3.09375 15.0449 3.09375 17.6816C3.09375 20.3184 3.45508 22.584 4.17773 24.4785C4.90039 26.3535 6.04297 27.9062 7.60547 29.1367C9.1875 30.3477 11.209 31.2461 13.6699 31.832C16.1309 32.3984 19.0996 32.6816 22.5762 32.6816C24.8809 32.6816 27.2344 32.4473 29.6367 31.9785C32.0391 31.5098 34.3633 30.8066 36.6094 29.8691C36.7656 29.791 36.9414 29.752 37.1367 29.752C37.4297 29.752 37.6641 29.8398 37.8398 30.0156C38.0352 30.1914 38.1328 30.3965 38.1328 30.6309C38.1328 30.8262 38.0645 31.0215 37.9277 31.2168C37.791 31.4121 37.5566 31.5781 37.2246 31.7148C34.7441 32.7305 32.3125 33.4727 29.9297 33.9414C27.5664 34.3906 25.1152 34.6152 22.5762 34.6152C18.9434 34.6152 15.75 34.3027 12.9961 33.6777C10.2617 33.0527 7.97656 32.0664 6.14062 30.7188C4.30469 29.3516 2.91797 27.6035 1.98047 25.4746C1.0625 23.3262 0.603516 20.7285 0.603516 17.6816ZM74.0801 11.5C74.0801 12.6914 73.9043 13.7363 73.5527 14.6348C73.2012 15.5332 72.7227 16.3145 72.1172 16.9785C71.5312 17.6426 70.8281 18.1992 70.0078 18.6484C69.207 19.0977 68.3477 19.4688 67.4297 19.7617C66.5117 20.0352 65.5547 20.2402 64.5586 20.377C63.582 20.5137 62.625 20.6016 61.6875 20.6406L72.4688 31.9785C72.6445 32.1543 72.7617 32.3398 72.8203 32.5352C72.8984 32.7109 72.9473 32.877 72.9668 33.0332C72.9668 33.3066 72.8691 33.541 72.6738 33.7363C72.498 33.9121 72.2637 34 71.9707 34C71.7559 34 71.5215 33.9512 71.2676 33.8535C71.0332 33.7559 70.7988 33.5703 70.5645 33.2969L58.8164 20.7578H47.8594V31.7734C47.8594 32.0664 47.8398 32.3496 47.8008 32.623C47.7812 32.877 47.7324 33.1113 47.6543 33.3262C47.5762 33.5215 47.459 33.6875 47.3027 33.8242C47.166 33.9414 46.9805 34 46.7461 34C46.1797 34 45.8086 33.7852 45.6328 33.3555C45.457 32.9062 45.3691 32.3789 45.3691 31.7734V2.44727C45.3691 2.1543 45.3691 1.93945 45.3691 1.80273C45.3887 1.64648 45.4277 1.53906 45.4863 1.48047C45.5449 1.42188 45.6426 1.39258 45.7793 1.39258C45.9355 1.37305 46.1602 1.36328 46.4531 1.36328H54.9492C56.7656 1.36328 58.4941 1.38281 60.1348 1.42188C61.7949 1.46094 63.3281 1.58789 64.7344 1.80273C66.1602 1.99805 67.4492 2.31055 68.6016 2.74023C69.7539 3.15039 70.7305 3.73633 71.5312 4.49805C72.3516 5.24023 72.9766 6.17773 73.4062 7.31055C73.8555 8.44336 74.0801 9.83984 74.0801 11.5ZM71.5898 11.5C71.5898 9.56641 71.2285 8.05273 70.5059 6.95898C69.8027 5.8457 68.748 5.02539 67.3418 4.49805C65.9355 3.95117 64.1973 3.61914 62.127 3.50195C60.0566 3.36523 57.6641 3.29688 54.9492 3.29688H47.8594V18.8242H58.8457C60.5449 18.8242 62.166 18.7461 63.709 18.5898C65.252 18.4336 66.5996 18.1016 67.752 17.5938C68.9238 17.0664 69.8516 16.3242 70.5352 15.3672C71.2383 14.4102 71.5898 13.1211 71.5898 11.5ZM111.258 12.9941C111.258 14.7715 111.033 16.2754 110.584 17.5059C110.154 18.7168 109.549 19.7227 108.768 20.5234C107.986 21.3242 107.039 21.9492 105.926 22.3984C104.832 22.8281 103.621 23.1504 102.293 23.3652C100.965 23.5801 99.5391 23.707 98.0156 23.7461C96.5117 23.7852 94.959 23.8047 93.3574 23.8047H84.627V31.7734C84.627 32.3398 84.5488 32.8574 84.3926 33.3262C84.2559 33.7754 83.9531 34 83.4844 34C82.918 34 82.5469 33.7852 82.3711 33.3555C82.2148 32.9062 82.1367 32.3789 82.1367 31.7734V2.44727C82.1367 2.1543 82.1562 1.93945 82.1953 1.80273C82.2539 1.64648 82.3418 1.53906 82.459 1.48047C82.5762 1.42188 82.7227 1.39258 82.8984 1.39258C83.0938 1.37305 83.3379 1.36328 83.6309 1.36328H93.3574C95.1348 1.36328 96.8047 1.41211 98.3672 1.50977C99.9492 1.60742 101.404 1.8125 102.732 2.125C104.061 2.41797 105.252 2.82812 106.307 3.35547C107.361 3.88281 108.25 4.58594 108.973 5.46484C109.715 6.32422 110.281 7.36914 110.672 8.59961C111.062 9.83008 111.258 11.2949 111.258 12.9941ZM108.768 12.9941C108.768 10.9629 108.455 9.3125 107.83 8.04297C107.225 6.77344 106.287 5.78711 105.018 5.08398C103.768 4.38086 102.176 3.91211 100.242 3.67773C98.3086 3.42383 96.0137 3.29688 93.3574 3.29688H84.627V21.9883H93.3574C96.0137 21.9883 98.3086 21.9102 100.242 21.7539C102.195 21.5781 103.797 21.1875 105.047 20.582C106.316 19.957 107.254 19.0488 107.859 17.8574C108.465 16.666 108.768 15.0449 108.768 12.9941Z" fill="white"/>
</svg>
