<svg width="270" height="272" viewBox="0 0 270 272" fill="none" xmlns="http://www.w3.org/2000/svg">
<rect width="270" height="272" rx="24" fill="#475677"/>
<path d="M0 160C0 160 26.527 78.3942 65.207 72C99.1188 66.3942 108.495 138.006 145.184 136C181.644 134.006 177.104 68.4098 211.504 64C239.512 60.4098 270 120 270 120V233.6C270 247.041 270 253.762 267.384 258.896C265.083 263.412 261.412 267.083 256.896 269.384C251.762 272 245.041 272 231.6 272H38.4C24.9587 272 18.2381 272 13.1042 269.384C8.58834 267.083 4.9168 263.412 2.61584 258.896C0 253.762 0 247.041 0 233.6L0 160Z" fill="url(#paint0_linear)"/>
<defs>
<linearGradient id="paint0_linear" x1="0" y1="63.796" x2="0" y2="272" gradientUnits="userSpaceOnUse">
<stop stop-color="#34405D"/>
<stop offset="1" stop-color="#465373"/>
</linearGradient>
</defs>
</svg>
