<svg width="270" height="272" viewBox="0 0 270 272" fill="none" xmlns="http://www.w3.org/2000/svg">
<rect width="270" height="272" rx="24" fill="#7A98F8"/>
<path d="M0 120C0 120 35.0212 99.0101 65.207 104C107.613 111.01 112.225 151.209 145.184 144C185.373 135.209 175.676 78.8891 211.504 72C238.084 66.8891 270 120 270 120V233.6C270 247.041 270 253.762 267.384 258.896C265.083 263.412 261.412 267.083 256.896 269.384C251.762 272 245.041 272 231.6 272H38.4C24.9587 272 18.2381 272 13.1042 269.384C8.58834 267.083 4.9168 263.412 2.61584 258.896C0 253.762 0 247.041 0 233.6L0 120Z" fill="url(#paint0_linear)"/>
<defs>
<linearGradient id="paint0_linear" x1="0" y1="71.5514" x2="0" y2="272" gradientUnits="userSpaceOnUse">
<stop stop-color="#6378F7"/>
<stop offset="1" stop-color="#88AAF8"/>
</linearGradient>
</defs>
</svg>
